<mxfile host="app.diagrams.net" modified="2020-07-24T04:35:51.568Z" agent="5.0 (Windows)" etag="RiysnZWBILDLUgU6aNzr" version="13.5.1" type="github">
  <diagram id="eNnrkCcmQGFRPDgfFCJY" name="Page-1">
    <mxGraphModel dx="1422" dy="763" grid="1" gridSize="10" guides="1" tooltips="1" connect="1" arrows="1" fold="1" page="1" pageScale="1" pageWidth="827" pageHeight="1169" math="0" shadow="0">
      <root>
        <mxCell id="0" />
        <mxCell id="1" parent="0" />
        <mxCell id="0SFAlb7p75PACZg_aRlU-3" style="edgeStyle=orthogonalEdgeStyle;rounded=0;orthogonalLoop=1;jettySize=auto;html=1;entryX=0.5;entryY=0;entryDx=0;entryDy=0;" edge="1" parent="1" source="0SFAlb7p75PACZg_aRlU-11" target="0SFAlb7p75PACZg_aRlU-2">
          <mxGeometry relative="1" as="geometry">
            <mxPoint x="500" y="290" as="targetPoint" />
          </mxGeometry>
        </mxCell>
        <mxCell id="0SFAlb7p75PACZg_aRlU-1" value="&lt;div&gt;车险&lt;br&gt;&lt;/div&gt;&lt;div&gt;核心库&lt;/div&gt;" style="shape=cylinder;whiteSpace=wrap;html=1;boundedLbl=1;backgroundOutline=1;" vertex="1" parent="1">
          <mxGeometry x="530" y="60" width="60" height="80" as="geometry" />
        </mxCell>
        <mxCell id="0SFAlb7p75PACZg_aRlU-9" style="edgeStyle=orthogonalEdgeStyle;rounded=0;orthogonalLoop=1;jettySize=auto;html=1;exitX=0.5;exitY=1;exitDx=0;exitDy=0;entryX=0.5;entryY=1;entryDx=0;entryDy=0;" edge="1" parent="1" source="0SFAlb7p75PACZg_aRlU-2" target="0SFAlb7p75PACZg_aRlU-4">
          <mxGeometry relative="1" as="geometry" />
        </mxCell>
        <mxCell id="0SFAlb7p75PACZg_aRlU-2" value="GP" style="shape=cylinder;whiteSpace=wrap;html=1;boundedLbl=1;backgroundOutline=1;" vertex="1" parent="1">
          <mxGeometry x="590" y="300" width="60" height="80" as="geometry" />
        </mxCell>
        <mxCell id="0SFAlb7p75PACZg_aRlU-7" style="edgeStyle=orthogonalEdgeStyle;rounded=0;orthogonalLoop=1;jettySize=auto;html=1;exitX=1;exitY=0.3;exitDx=0;exitDy=0;entryX=0;entryY=0.3;entryDx=0;entryDy=0;" edge="1" parent="1" source="0SFAlb7p75PACZg_aRlU-4" target="0SFAlb7p75PACZg_aRlU-2">
          <mxGeometry relative="1" as="geometry" />
        </mxCell>
        <mxCell id="0SFAlb7p75PACZg_aRlU-4" value="&lt;div&gt;ORACLE&lt;br&gt;&lt;/div&gt;" style="shape=cylinder;whiteSpace=wrap;html=1;boundedLbl=1;backgroundOutline=1;" vertex="1" parent="1">
          <mxGeometry x="180" y="300" width="60" height="80" as="geometry" />
        </mxCell>
        <mxCell id="0SFAlb7p75PACZg_aRlU-6" value="&lt;font style=&quot;font-size: 16px&quot;&gt;清单数据抽取&lt;/font&gt;" style="text;html=1;strokeColor=none;fillColor=none;align=center;verticalAlign=middle;whiteSpace=wrap;rounded=0;" vertex="1" parent="1">
          <mxGeometry x="670" y="200" width="20" height="80" as="geometry" />
        </mxCell>
        <mxCell id="0SFAlb7p75PACZg_aRlU-8" value="&lt;font style=&quot;font-size: 16px&quot;&gt;人、团队、机构&lt;/font&gt;" style="text;html=1;align=center;verticalAlign=middle;resizable=0;points=[];autosize=1;strokeWidth=3;" vertex="1" parent="1">
          <mxGeometry x="335" y="290" width="130" height="20" as="geometry" />
        </mxCell>
        <mxCell id="0SFAlb7p75PACZg_aRlU-10" value="&lt;font style=&quot;font-size: 16px&quot;&gt;结果数据&lt;/font&gt;" style="text;html=1;align=center;verticalAlign=middle;resizable=0;points=[];autosize=1;" vertex="1" parent="1">
          <mxGeometry x="355" y="410" width="80" height="20" as="geometry" />
        </mxCell>
        <mxCell id="0SFAlb7p75PACZg_aRlU-11" value="清分规则" style="triangle;whiteSpace=wrap;html=1;direction=south;" vertex="1" parent="1">
          <mxGeometry x="595" y="200" width="50" height="40" as="geometry" />
        </mxCell>
        <mxCell id="0SFAlb7p75PACZg_aRlU-12" style="edgeStyle=orthogonalEdgeStyle;rounded=0;orthogonalLoop=1;jettySize=auto;html=1;entryX=0;entryY=0.5;entryDx=0;entryDy=0;exitX=0.5;exitY=1;exitDx=0;exitDy=0;" edge="1" parent="1" source="0SFAlb7p75PACZg_aRlU-1" target="0SFAlb7p75PACZg_aRlU-11">
          <mxGeometry relative="1" as="geometry">
            <mxPoint x="500" y="300" as="targetPoint" />
            <mxPoint x="500" y="200" as="sourcePoint" />
          </mxGeometry>
        </mxCell>
        <mxCell id="0SFAlb7p75PACZg_aRlU-20" style="edgeStyle=orthogonalEdgeStyle;rounded=0;orthogonalLoop=1;jettySize=auto;html=1;exitX=0.5;exitY=1;exitDx=0;exitDy=0;entryX=0.5;entryY=0;entryDx=0;entryDy=0;fontSize=18;" edge="1" parent="1" source="0SFAlb7p75PACZg_aRlU-15" target="0SFAlb7p75PACZg_aRlU-4">
          <mxGeometry relative="1" as="geometry" />
        </mxCell>
        <mxCell id="0SFAlb7p75PACZg_aRlU-21" value="CRUD" style="edgeLabel;html=1;align=center;verticalAlign=middle;resizable=0;points=[];fontSize=18;" vertex="1" connectable="0" parent="0SFAlb7p75PACZg_aRlU-20">
          <mxGeometry x="-0.125" y="1" relative="1" as="geometry">
            <mxPoint as="offset" />
          </mxGeometry>
        </mxCell>
        <mxCell id="0SFAlb7p75PACZg_aRlU-15" value="人力资源管理系统" style="rounded=0;whiteSpace=wrap;html=1;" vertex="1" parent="1">
          <mxGeometry x="150" y="80" width="120" height="60" as="geometry" />
        </mxCell>
        <mxCell id="0SFAlb7p75PACZg_aRlU-27" style="edgeStyle=orthogonalEdgeStyle;rounded=0;orthogonalLoop=1;jettySize=auto;html=1;exitX=0.5;exitY=1;exitDx=0;exitDy=0;entryX=0;entryY=0.5;entryDx=0;entryDy=0;fontSize=18;" edge="1" parent="1" source="0SFAlb7p75PACZg_aRlU-22" target="0SFAlb7p75PACZg_aRlU-11">
          <mxGeometry relative="1" as="geometry" />
        </mxCell>
        <mxCell id="0SFAlb7p75PACZg_aRlU-22" value="&lt;div&gt;农险&lt;br&gt;&lt;/div&gt;&lt;div&gt;核心库&lt;/div&gt;" style="shape=cylinder;whiteSpace=wrap;html=1;boundedLbl=1;backgroundOutline=1;" vertex="1" parent="1">
          <mxGeometry x="420" y="60" width="60" height="80" as="geometry" />
        </mxCell>
        <mxCell id="0SFAlb7p75PACZg_aRlU-25" style="edgeStyle=orthogonalEdgeStyle;rounded=0;orthogonalLoop=1;jettySize=auto;html=1;exitX=0.5;exitY=1;exitDx=0;exitDy=0;fontSize=18;" edge="1" parent="1" source="0SFAlb7p75PACZg_aRlU-23">
          <mxGeometry relative="1" as="geometry">
            <mxPoint x="620" y="200" as="targetPoint" />
          </mxGeometry>
        </mxCell>
        <mxCell id="0SFAlb7p75PACZg_aRlU-23" value="&lt;div&gt;非车&lt;br&gt;&lt;/div&gt;&lt;div&gt;核心库&lt;/div&gt;" style="shape=cylinder;whiteSpace=wrap;html=1;boundedLbl=1;backgroundOutline=1;" vertex="1" parent="1">
          <mxGeometry x="645" y="60" width="60" height="80" as="geometry" />
        </mxCell>
        <mxCell id="0SFAlb7p75PACZg_aRlU-26" style="edgeStyle=orthogonalEdgeStyle;rounded=0;orthogonalLoop=1;jettySize=auto;html=1;exitX=0.5;exitY=1;exitDx=0;exitDy=0;fontSize=18;" edge="1" parent="1" source="0SFAlb7p75PACZg_aRlU-24">
          <mxGeometry relative="1" as="geometry">
            <mxPoint x="620" y="200" as="targetPoint" />
          </mxGeometry>
        </mxCell>
        <mxCell id="0SFAlb7p75PACZg_aRlU-24" value="&lt;div&gt;社保&lt;br&gt;&lt;/div&gt;&lt;div&gt;核心库&lt;/div&gt;" style="shape=cylinder;whiteSpace=wrap;html=1;boundedLbl=1;backgroundOutline=1;" vertex="1" parent="1">
          <mxGeometry x="750" y="60" width="60" height="80" as="geometry" />
        </mxCell>
      </root>
    </mxGraphModel>
  </diagram>
</mxfile>
